<?xml version="1.0" encoding="UTF-8" standalone="no"?>
<svg
   height="28.022137"
   width="27"
   version="1.1"
   id="svg4"
   sodipodi:docname="workflow.svg"
   inkscape:version="1.1 (c68e22c387, 2021-05-23)"
   xmlns:inkscape="http://www.inkscape.org/namespaces/inkscape"
   xmlns:sodipodi="http://sodipodi.sourceforge.net/DTD/sodipodi-0.dtd"
   xmlns="http://www.w3.org/2000/svg"
   xmlns:svg="http://www.w3.org/2000/svg">
  <defs
     id="defs8" />
  <sodipodi:namedview
     id="namedview6"
     pagecolor="#505050"
     bordercolor="#eeeeee"
     borderopacity="1"
     inkscape:pageshadow="0"
     inkscape:pageopacity="0"
     inkscape:pagecheckerboard="0"
     showgrid="false"
     fit-margin-top="0"
     fit-margin-left="0"
     fit-margin-right="0"
     fit-margin-bottom="0"
     inkscape:zoom="27.28125"
     inkscape:cx="12.994273"
     inkscape:cy="13.983963"
     inkscape:window-width="2560"
     inkscape:window-height="1387"
     inkscape:window-x="-8"
     inkscape:window-y="-8"
     inkscape:window-maximized="1"
     inkscape:current-layer="svg4" />
  <path
     d="m 24,21.022136 v -5 H 18.268 L 14,11.755136 v -2.783 a 4.5,4.5 0 1 0 -1,0 v 2.783 l -4.266,4.267 H 3 v 5 H 0 v 7 h 7 v -7 H 4 v -4 h 4.734 l 4.766,4.767 4.768,-4.767 H 23 v 4 h -3 v 7 h 7 v -7 z m -18,1 v 5 H 1 v -5 z M 10,4.5221362 A 3.5,3.5 0 1 1 13.5,8.022136 3.505,3.505 0 0 1 10,4.5221362 Z m 3.5,15.8529998 -3.852,-3.853 3.852,-3.853 3.853,3.853 z m 12.5,6.647 h -5 v -5 h 5 z"
     id="path2"
     style="fill:#ffffff" />
</svg>
